<svg xmlns="http://www.w3.org/2000/svg" viewBox="0 0 64 64" id="resume"><path d="M13.79,22.2h-1a.5.5,0,0,0,0,1h1a.5.5,0,0,0,0-1Zm-3.49,0h-1a.5.5,0,1,0,0,1h1a.5.5,0,0,0,0-1Zm1.25,1.25a.5.5,0,0,0-.5.5v1a.5.5,0,0,0,1,0V24A.5.5,0,0,0,11.55,23.45Zm0-3.49a.5.5,0,0,0-.5.5v1a.5.5,0,0,0,1,0v-1A.5.5,0,0,0,11.55,20ZM45.29,9.21h-1a.5.5,0,0,0,0,1h1a.5.5,0,0,0,0-1Zm-3.49,0h-1a.5.5,0,0,0,0,1h1a.5.5,0,0,0,0-1Zm1.25,1.25a.5.5,0,0,0-.5.5v1a.5.5,0,0,0,.5.5.5.5,0,0,0,.5-.5V11A.5.5,0,0,0,43.05,10.46Zm0-3.49a.5.5,0,0,0-.5.5v1a.5.5,0,0,0,.5.5.5.5,0,0,0,.5-.5v-1A.51.51,0,0,0,43.05,7ZM54.69,19.33h-1a.49.49,0,0,0-.5.5.51.51,0,0,0,.5.5h1a.51.51,0,0,0,.5-.5A.49.49,0,0,0,54.69,19.33Zm-3.49,0h-1a.5.5,0,0,0-.5.5.51.51,0,0,0,.5.5h1a.51.51,0,0,0,.5-.5A.49.49,0,0,0,51.2,19.33Zm1.25,1.25a.49.49,0,0,0-.5.5v1a.5.5,0,1,0,1,0v-1A.49.49,0,0,0,52.45,20.58Zm0-3.5a.5.5,0,0,0-.5.5v1a.5.5,0,0,0,1,0v-1A.5.5,0,0,0,52.45,17.08ZM25.83,7.61H24.56a.5.5,0,0,0,0,1h1.27a.5.5,0,1,0,0-1Zm-4.48,0H20.08a.5.5,0,0,0,0,1h1.27a.5.5,0,0,0,0-1ZM23,9.21a.5.5,0,0,0-.5.5V11a.49.49,0,0,0,.5.5.5.5,0,0,0,.5-.5V9.71A.5.5,0,0,0,23,9.21Zm0-4.48a.5.5,0,0,0-.5.5V6.51A.5.5,0,0,0,23,7a.51.51,0,0,0,.5-.5V5.23A.51.51,0,0,0,23,4.73Zm3.39,8.69H19.1a2.5,2.5,0,0,0-2.5,2.5V45.84a.5.5,0,0,0,1,0V15.92a1.5,1.5,0,0,1,1.5-1.5h7.25a.5.5,0,0,0,.5-.5A.5.5,0,0,0,26.35,13.42ZM17.1,47.59a.5.5,0,0,0-.5.5V49a.5.5,0,0,0,1,0v-.86A.5.5,0,0,0,17.1,47.59ZM29.62,13.42h-1a.5.5,0,0,0-.5.5.5.5,0,0,0,.5.5h1a.5.5,0,0,0,.5-.5A.5.5,0,0,0,29.62,13.42Zm21.6,10.72a.64.64,0,0,0,0-.07.43.43,0,0,0-.12-.22L40.8,13.58a.46.46,0,0,0-.21-.13h-.06a.13.13,0,0,0-.08,0h-8a.51.51,0,0,0-.5.5.5.5,0,0,0,.5.5H39.9L39,23.14a2.51,2.51,0,0,0,2.55,2.5l1.53-.17a.5.5,0,1,0-.1-1l-1.48.16A1.5,1.5,0,0,1,40,23.18L40.84,15l4.4,4.39,4.39,4.41-4.39.44a.49.49,0,0,0-.45.54.51.51,0,0,0,.55.46l4.89-.5v32a1.5,1.5,0,0,1-1.5,1.5H19.1a1.5,1.5,0,0,1-1.5-1.5V51.83a.5.5,0,0,0-1,0v4.94a2.51,2.51,0,0,0,2.5,2.5H48.73a2.51,2.51,0,0,0,2.5-2.5V24.2S51.22,24.15,51.22,24.14ZM37.29,35.84H19.9a.51.51,0,0,0-.5.5.5.5,0,0,0,.5.5H37.29a.5.5,0,0,0,.5-.5A.51.51,0,0,0,37.29,35.84Zm-1,3.74H34.39a.5.5,0,0,0,0,1h1.94a.5.5,0,0,0,0-1Zm11.59,3.75h-28a.49.49,0,0,0-.5.5.51.51,0,0,0,.5.5h28a.51.51,0,0,0,.5-.5A.49.49,0,0,0,47.92,43.33Zm0-11.22h-28a.5.5,0,0,0,0,1h28a.5.5,0,0,0,0-1ZM20.83,22.2a.5.5,0,0,0-.5.5v.57a.51.51,0,0,0,.5.5.5.5,0,0,0,.5-.5V22.7A.5.5,0,0,0,20.83,22.2Zm14-5h-13a1.5,1.5,0,0,0-1.5,1.5v2.42a.51.51,0,0,0,.5.5.51.51,0,0,0,.5-.5V18.66a.51.51,0,0,1,.5-.5h13a.5.5,0,0,1,.5.5v9.22a.5.5,0,0,1-.5.5H32.53c-.26-2.73-1.29-4.21-3.19-4.58a2.42,2.42,0,0,0,1.42-2.21,2.46,2.46,0,1,0-3.49,2.21c-1.9.37-2.93,1.85-3.19,4.58H21.83a.51.51,0,0,1-.5-.5V25a.49.49,0,0,0-.5-.5.5.5,0,0,0-.5.5v2.93a1.5,1.5,0,0,0,1.5,1.5h13a1.5,1.5,0,0,0,1.5-1.5V18.66A1.5,1.5,0,0,0,34.78,17.16Zm-7.93,4.43A1.46,1.46,0,1,1,28.31,23,1.46,1.46,0,0,1,26.85,21.59Zm-1.72,6.79c.41-2.86,1.76-3.68,3.18-3.68s2.76.82,3.17,3.68Zm22.79,7.46H40.19a.51.51,0,0,0-.5.5.5.5,0,0,0,.5.5h7.73a.5.5,0,0,0,.5-.5A.51.51,0,0,0,47.92,35.84ZM32.46,39.58H19.9a.5.5,0,0,0,0,1H32.46a.5.5,0,0,0,0-1Zm15.46,0H38.26a.5.5,0,0,0,0,1h9.66a.5.5,0,0,0,0-1Zm0,7.47H30.53a.5.5,0,0,0-.5.5.5.5,0,0,0,.5.5H47.92a.5.5,0,0,0,.5-.5A.5.5,0,0,0,47.92,47.05ZM33.43,50.79H31.49a.51.51,0,0,0-.5.5.5.5,0,0,0,.5.5h1.94a.5.5,0,0,0,.5-.5A.51.51,0,0,0,33.43,50.79Zm14.49,3.74h-28a.5.5,0,0,0,0,1h28a.5.5,0,0,0,0-1ZM27.63,47.05H19.9a.5.5,0,0,0-.5.5.5.5,0,0,0,.5.5h7.73a.5.5,0,0,0,.5-.5A.5.5,0,0,0,27.63,47.05Zm20.29,3.74H35.36a.5.5,0,0,0-.5.5.49.49,0,0,0,.5.5H47.92a.49.49,0,0,0,.5-.5A.5.5,0,0,0,47.92,50.79Zm-18.36,0H19.9a.5.5,0,0,0-.5.5.49.49,0,0,0,.5.5h9.66a.49.49,0,0,0,.5-.5A.5.5,0,0,0,29.56,50.79ZM47.92,28.38H38.58a.5.5,0,0,0-.5.5.51.51,0,0,0,.5.5h9.34a.5.5,0,0,0,.5-.5A.49.49,0,0,0,47.92,28.38Z"></path></svg>
