<?xml version="1.0" encoding="UTF-8"?>
<svg width="700pt" height="700pt" version="1.1" viewBox="0 0 700 700" xmlns="http://www.w3.org/2000/svg" xmlns:xlink="http://www.w3.org/1999/xlink">
 <defs>
  <symbol id="t" overflow="visible">
   <path d="m3.6562-0.21875c-0.1875 0.09375-0.38672 0.16797-0.59375 0.21875-0.19922 0.050781-0.40625 0.078125-0.625 0.078125-0.66797 0-1.1992-0.17969-1.5938-0.54688-0.38672-0.375-0.57812-0.87891-0.57812-1.5156 0-0.64453 0.19141-1.1484 0.57812-1.5156 0.39453-0.375 0.92578-0.5625 1.5938-0.5625 0.21875 0 0.42578 0.027344 0.625 0.078125 0.20703 0.054687 0.40625 0.125 0.59375 0.21875v0.82812c-0.1875-0.125-0.375-0.21875-0.5625-0.28125-0.17969-0.0625-0.37109-0.09375-0.57812-0.09375-0.36719 0-0.65625 0.12109-0.875 0.35938-0.21094 0.23047-0.3125 0.55469-0.3125 0.96875 0 0.40625 0.10156 0.73047 0.3125 0.96875 0.21875 0.23047 0.50781 0.34375 0.875 0.34375 0.20703 0 0.39844-0.023437 0.57812-0.078125 0.1875-0.0625 0.375-0.16016 0.5625-0.29688z"/>
  </symbol>
  <symbol id="c" overflow="visible">
   <path d="m2.6875-2.1719c-0.085938-0.039063-0.16797-0.070313-0.25-0.09375-0.085938-0.019531-0.16797-0.03125-0.25-0.03125-0.25 0-0.44531 0.085937-0.57812 0.25-0.125 0.15625-0.1875 0.38281-0.1875 0.67188v1.375h-0.96875v-2.9844h0.96875v0.48438c0.11328-0.19531 0.25-0.33594 0.40625-0.42188 0.16406-0.09375 0.35938-0.14062 0.57812-0.14062h0.10938c0.039063 0 0.09375 0.007812 0.15625 0.015625z"/>
  </symbol>
  <symbol id="b" overflow="visible">
   <path d="m3.4375-1.5v0.26562h-2.2344c0.03125 0.23047 0.11328 0.40234 0.25 0.51562 0.13281 0.10547 0.32812 0.15625 0.57812 0.15625 0.20703 0 0.41406-0.023438 0.625-0.078125 0.20703-0.0625 0.42188-0.15625 0.64062-0.28125v0.73438c-0.21875 0.09375-0.44531 0.16406-0.67188 0.20312-0.23047 0.039062-0.45312 0.0625-0.67188 0.0625-0.54297 0-0.96484-0.13281-1.2656-0.40625-0.30469-0.28125-0.45312-0.67188-0.45312-1.1719 0-0.47656 0.14453-0.85938 0.4375-1.1406 0.30078-0.28125 0.70703-0.42188 1.2188-0.42188 0.46875 0 0.84375 0.14062 1.125 0.42188s0.42188 0.66406 0.42188 1.1406zm-0.96875-0.32812c0-0.17578-0.058594-0.31641-0.17188-0.42188-0.10547-0.11328-0.24219-0.17188-0.40625-0.17188-0.1875 0-0.33984 0.054687-0.45312 0.15625-0.11719 0.10547-0.1875 0.25-0.21875 0.4375z"/>
  </symbol>
  <symbol id="d" overflow="visible">
   <path d="m1.7969-1.3438c-0.19922 0-0.35156 0.039062-0.45312 0.10938-0.09375 0.0625-0.14062 0.16406-0.14062 0.29688 0 0.11719 0.035156 0.21094 0.10938 0.28125 0.082031 0.0625 0.19531 0.09375 0.34375 0.09375 0.17578 0 0.32812-0.0625 0.45312-0.1875s0.1875-0.28516 0.1875-0.48438v-0.10938zm1.4688-0.35938v1.7031h-0.96875v-0.4375c-0.125 0.17969-0.27344 0.30859-0.4375 0.39062-0.15625 0.082031-0.35156 0.125-0.57812 0.125-0.3125 0-0.57031-0.085938-0.76562-0.26562-0.1875-0.1875-0.28125-0.42188-0.28125-0.70312 0-0.35156 0.11719-0.61328 0.35938-0.78125 0.23828-0.16406 0.61719-0.25 1.1406-0.25h0.5625v-0.0625c0-0.15625-0.0625-0.26562-0.1875-0.32812-0.11719-0.070312-0.29688-0.10938-0.54688-0.10938-0.21094 0-0.40234 0.023437-0.57812 0.0625-0.17969 0.042969-0.33984 0.10156-0.48438 0.17188v-0.71875c0.19531-0.050781 0.39844-0.085938 0.60938-0.10938 0.20703-0.03125 0.41406-0.046875 0.625-0.046875 0.53906 0 0.92969 0.10938 1.1719 0.32812 0.23828 0.21094 0.35938 0.55469 0.35938 1.0312z"/>
  </symbol>
  <symbol id="a" overflow="visible">
   <path d="m1.5-3.8438v0.85938h0.98438v0.67188h-0.98438v1.2812c0 0.13672 0.023438 0.23047 0.078125 0.28125 0.0625 0.042969 0.17578 0.0625 0.34375 0.0625h0.48438v0.6875h-0.8125c-0.38672 0-0.65625-0.078125-0.8125-0.23438s-0.23438-0.42188-0.23438-0.79688v-1.2812h-0.46875v-0.67188h0.46875v-0.85938z"/>
  </symbol>
  <symbol id="i" overflow="visible">
   <path d="m2.5-2.5469v-1.6094h0.95312v4.1562h-0.95312v-0.4375c-0.13672 0.17969-0.28125 0.30859-0.4375 0.39062-0.15625 0.082031-0.33984 0.125-0.54688 0.125-0.375 0-0.68359-0.14453-0.92188-0.4375-0.23047-0.28906-0.34375-0.67188-0.34375-1.1406 0-0.45703 0.11328-0.83203 0.34375-1.125 0.23828-0.28906 0.54688-0.4375 0.92188-0.4375 0.19531 0 0.375 0.042969 0.53125 0.125 0.16406 0.085938 0.31641 0.21484 0.45312 0.39062zm-0.64062 1.9375c0.20703 0 0.36328-0.070313 0.46875-0.21875 0.11328-0.15625 0.17188-0.37891 0.17188-0.67188 0-0.28125-0.058594-0.49219-0.17188-0.64062-0.10547-0.15625-0.26172-0.23438-0.46875-0.23438-0.19922 0-0.35547 0.078125-0.46875 0.23438-0.10547 0.14844-0.15625 0.35938-0.15625 0.64062 0 0.29297 0.050781 0.51562 0.15625 0.67188 0.11328 0.14844 0.26953 0.21875 0.46875 0.21875z"/>
  </symbol>
  <symbol id="h" overflow="visible">
   <path d="m2.0469-0.60938c0.20703 0 0.36328-0.070313 0.46875-0.21875 0.11328-0.15625 0.17188-0.37891 0.17188-0.67188 0-0.28125-0.058594-0.49219-0.17188-0.64062-0.10547-0.15625-0.26172-0.23438-0.46875-0.23438-0.19922 0-0.35547 0.078125-0.46875 0.23438-0.10547 0.14844-0.15625 0.35938-0.15625 0.64062 0 0.29297 0.050781 0.51562 0.15625 0.67188 0.11328 0.14844 0.26953 0.21875 0.46875 0.21875zm-0.625-1.9375c0.125-0.17578 0.26562-0.30469 0.42188-0.39062 0.16406-0.082031 0.35156-0.125 0.5625-0.125 0.36328 0 0.66406 0.14844 0.90625 0.4375 0.23828 0.29297 0.35938 0.66797 0.35938 1.125 0 0.46875-0.12109 0.85156-0.35938 1.1406-0.24219 0.29297-0.54297 0.4375-0.90625 0.4375-0.21094 0-0.39844-0.042969-0.5625-0.125-0.15625-0.082031-0.29688-0.21094-0.42188-0.39062v0.4375h-0.96875v-4.1562h0.96875z"/>
  </symbol>
  <symbol id="g" overflow="visible">
   <path d="m0.0625-2.9844h0.95312l0.8125 2.0156 0.6875-2.0156h0.95312l-1.2656 3.2656c-0.125 0.33203-0.27344 0.56641-0.4375 0.70312-0.16797 0.13281-0.39062 0.20312-0.67188 0.20312h-0.54688v-0.64062h0.29688c0.16406 0 0.28516-0.027344 0.35938-0.078125 0.070313-0.054688 0.12891-0.14062 0.17188-0.26562l0.03125-0.09375z"/>
  </symbol>
  <symbol id="f" overflow="visible">
   <path d="m0.5-3.9844h2.7812v0.78125h-1.75v0.73438h1.6406v0.78125h-1.6406v1.6875h-1.0312z"/>
  </symbol>
  <symbol id="s" overflow="visible">
   <path d="m0.45312-4.1562h0.96875v4.1562h-0.96875z"/>
  </symbol>
  <symbol id="r" overflow="visible">
   <path d="m2.4219-4.1562v0.625h-0.51562c-0.13672 0-0.23438 0.027344-0.29688 0.078125-0.054687 0.054687-0.078125 0.13672-0.078125 0.25v0.21875h0.82812v0.67188h-0.82812v2.3125h-0.95312v-2.3125h-0.46875v-0.67188h0.46875v-0.21875c0-0.32031 0.085937-0.5625 0.26562-0.71875 0.1875-0.15625 0.47266-0.23438 0.85938-0.23438z"/>
  </symbol>
  <symbol id="e" overflow="visible">
   <path d="m1.875-2.375c-0.21094 0-0.37109 0.078125-0.48438 0.23438-0.10547 0.14844-0.15625 0.35938-0.15625 0.64062 0 0.29297 0.050781 0.51562 0.15625 0.67188 0.11328 0.14844 0.27344 0.21875 0.48438 0.21875 0.20703 0 0.36719-0.070313 0.48438-0.21875 0.11328-0.15625 0.17188-0.37891 0.17188-0.67188 0-0.28125-0.058594-0.49219-0.17188-0.64062-0.11719-0.15625-0.27734-0.23438-0.48438-0.23438zm0-0.6875c0.51953 0 0.92188 0.14062 1.2031 0.42188 0.28906 0.27344 0.4375 0.65234 0.4375 1.1406 0 0.5-0.14844 0.89062-0.4375 1.1719-0.28125 0.27344-0.68359 0.40625-1.2031 0.40625-0.51172 0-0.91406-0.13281-1.2031-0.40625-0.29297-0.28125-0.4375-0.67188-0.4375-1.1719 0-0.48828 0.14453-0.86719 0.4375-1.1406 0.28906-0.28125 0.69141-0.42188 1.2031-0.42188z"/>
  </symbol>
  <symbol id="q" overflow="visible">
   <path d="m3.2344-2.5c0.11328-0.17578 0.25391-0.3125 0.42188-0.40625 0.16406-0.10156 0.35156-0.15625 0.5625-0.15625 0.33203 0 0.58594 0.10938 0.76562 0.32812 0.1875 0.21094 0.28125 0.51172 0.28125 0.90625v1.8281h-0.96875v-1.5625c0.007813-0.019531 0.015625-0.039062 0.015625-0.0625v-0.10938c0-0.21875-0.03125-0.375-0.09375-0.46875s-0.16406-0.14062-0.29688-0.14062c-0.1875 0-0.33594 0.078125-0.4375 0.23438-0.09375 0.14844-0.14062 0.35938-0.14062 0.64062v1.4688h-0.96875v-1.5625c0-0.33203-0.03125-0.54688-0.09375-0.64062-0.054688-0.09375-0.15234-0.14062-0.29688-0.14062-0.17969 0-0.32031 0.078125-0.42188 0.23438-0.09375 0.14844-0.14062 0.35938-0.14062 0.64062v1.4688h-0.96875v-2.9844h0.96875v0.4375c0.11328-0.17578 0.24219-0.30469 0.39062-0.39062 0.15625-0.082031 0.32812-0.125 0.51562-0.125 0.20703 0 0.39062 0.054688 0.54688 0.15625 0.15625 0.09375 0.27344 0.23047 0.35938 0.40625z"/>
  </symbol>
  <symbol id="p" overflow="visible">
   <path d="m3.4688-1.8281v1.8281h-0.96875v-1.3906c0-0.25781-0.007812-0.4375-0.015625-0.53125-0.011719-0.10156-0.03125-0.17578-0.0625-0.21875-0.03125-0.0625-0.085937-0.10938-0.15625-0.14062-0.0625-0.039062-0.13281-0.0625-0.20312-0.0625-0.21094 0-0.37109 0.078125-0.48438 0.23438-0.10547 0.15625-0.15625 0.37109-0.15625 0.64062v1.4688h-0.96875v-4.1562h0.96875v1.6094c0.13281-0.17578 0.28516-0.30469 0.45312-0.39062 0.16406-0.082031 0.34375-0.125 0.53125-0.125 0.34375 0 0.60156 0.10938 0.78125 0.32812 0.1875 0.21094 0.28125 0.51172 0.28125 0.90625z"/>
  </symbol>
  <symbol id="o" overflow="visible">
   <path d="m0.5-3.9844h1.1562l1.4375 2.7344v-2.7344h0.98438v3.9844h-1.1562l-1.4375-2.7344v2.7344h-0.98438z"/>
  </symbol>
  <symbol id="n" overflow="visible">
   <path d="m0.42188-1.1719v-1.8125h0.96875v0.29688 0.60938 0.48438c0 0.24219 0.003906 0.41797 0.015625 0.53125 0.007812 0.10547 0.03125 0.17969 0.0625 0.21875 0.039062 0.0625 0.09375 0.11719 0.15625 0.15625 0.0625 0.03125 0.13281 0.046875 0.21875 0.046875 0.19531 0 0.35156-0.078125 0.46875-0.23438 0.11328-0.15625 0.17188-0.36719 0.17188-0.64062v-1.4688h0.95312v2.9844h-0.95312v-0.4375c-0.14844 0.17969-0.30469 0.30859-0.46875 0.39062-0.15625 0.082031-0.33594 0.125-0.53125 0.125-0.34375 0-0.60938-0.10156-0.79688-0.3125-0.17969-0.21875-0.26562-0.53125-0.26562-0.9375z"/>
  </symbol>
  <symbol id="m" overflow="visible">
   <path d="m3.4688-1.8281v1.8281h-0.96875v-1.3906c0-0.25781-0.007812-0.4375-0.015625-0.53125-0.011719-0.10156-0.03125-0.17578-0.0625-0.21875-0.03125-0.0625-0.085937-0.10938-0.15625-0.14062-0.0625-0.039062-0.13281-0.0625-0.20312-0.0625-0.21094 0-0.37109 0.078125-0.48438 0.23438-0.10547 0.15625-0.15625 0.37109-0.15625 0.64062v1.4688h-0.96875v-2.9844h0.96875v0.4375c0.13281-0.17578 0.28516-0.30469 0.45312-0.39062 0.16406-0.082031 0.34375-0.125 0.53125-0.125 0.34375 0 0.60156 0.10938 0.78125 0.32812 0.1875 0.21094 0.28125 0.51172 0.28125 0.90625z"/>
  </symbol>
  <symbol id="l" overflow="visible">
   <path d="m0.5-3.9844h1.7031c0.50781 0 0.89844 0.11719 1.1719 0.34375 0.26953 0.21875 0.40625 0.53906 0.40625 0.95312 0 0.41797-0.13672 0.74219-0.40625 0.96875-0.27344 0.21875-0.66406 0.32812-1.1719 0.32812h-0.67188v1.3906h-1.0312zm1.0312 0.75v1.1094h0.5625c0.19531 0 0.34766-0.046875 0.45312-0.14062 0.11328-0.10156 0.17188-0.24219 0.17188-0.42188 0-0.17578-0.058594-0.3125-0.17188-0.40625-0.10547-0.09375-0.25781-0.14062-0.45312-0.14062z"/>
  </symbol>
  <symbol id="k" overflow="visible">
   <path d="m0.45312-2.9844h0.96875v2.9375c0 0.39453-0.10156 0.69531-0.29688 0.90625-0.1875 0.21875-0.46484 0.32812-0.82812 0.32812h-0.48438v-0.64062h0.17188c0.17578 0 0.29688-0.042969 0.35938-0.125 0.070312-0.074219 0.10938-0.23047 0.10938-0.46875zm0-1.1719h0.96875v0.78125h-0.96875z"/>
  </symbol>
  <symbol id="j" overflow="visible">
   <path d="m2.875-2.8906v0.76562c-0.125-0.082031-0.25781-0.14453-0.39062-0.1875-0.13672-0.039062-0.27344-0.0625-0.40625-0.0625-0.27344 0-0.48047 0.078125-0.625 0.23438-0.14844 0.15625-0.21875 0.37109-0.21875 0.64062 0 0.28125 0.070313 0.5 0.21875 0.65625 0.14453 0.15625 0.35156 0.23438 0.625 0.23438 0.14453 0 0.28516-0.019531 0.42188-0.0625 0.13281-0.039063 0.25781-0.10938 0.375-0.20312v0.78125c-0.14844 0.0625-0.29688 0.10156-0.45312 0.125-0.15625 0.03125-0.3125 0.046875-0.46875 0.046875-0.54297 0-0.96484-0.13281-1.2656-0.40625-0.30469-0.28125-0.45312-0.67188-0.45312-1.1719 0-0.48828 0.14844-0.86719 0.45312-1.1406 0.30078-0.28125 0.72266-0.42188 1.2656-0.42188 0.15625 0 0.3125 0.015625 0.46875 0.046875 0.15625 0.023437 0.30469 0.0625 0.45312 0.125z"/>
  </symbol>
 </defs>
 <g>
  <path d="m539.36 109.66h-57.77c-2.418 0-4.375-1.957-4.375-4.375 0-16.859 6.4375-32.848 18.121-45.02 11.656-12.141 27.234-19.152 43.863-19.746 0.09375-0.003906 0.1875-0.003906 0.27734 0 0.78125 0.023437 1.5625 0.054687 2.3359 0.10156 22.723 1.3203 32.57 19.184 32.105 35.227-0.48437 16.801-12.512 33.812-34.559 33.812zm-53.223-8.75h53.223c17.234 0 25.465-13.125 25.816-25.316 0.35938-12.348-6.8828-25.25-23.867-26.238-0.64063-0.039062-1.2891-0.066406-1.9375-0.085937-28.004 1.0742-51.027 23.809-53.234 51.641z"/>
  <path d="m413.91 519.53h-251.45c-29.855 0-59.977-19.629-59.977-63.48 0-2.418 1.957-4.375 4.375-4.375h253.12c2.418 0 4.375 1.957 4.375 4.375 0 36.781 26.922 52.484 49.98 54.754 2.3203 0.23047 4.0547 2.2383 3.9414 4.5703-0.11719 2.3242-2.0391 4.1562-4.3711 4.1562zm-302.55-59.105c1.6953 30.746 21.375 50.355 51.109 50.355h223.1c-15.77-8.9609-28.523-25.051-29.844-50.355z"/>
  <path d="m255.64 322.66h-56.25c-2.418 0-4.375-1.957-4.375-4.375s1.957-4.375 4.375-4.375h56.25c2.418 0 4.375 1.957 4.375 4.375s-1.957 4.375-4.375 4.375z"/>
  <path d="m274.39 355.47h-75c-2.418 0-4.375-1.957-4.375-4.375s1.957-4.375 4.375-4.375h75c2.418 0 4.375 1.957 4.375 4.375s-1.957 4.375-4.375 4.375z"/>
  <path d="m319.7 388.28h-120.31c-2.418 0-4.375-1.957-4.375-4.375s1.957-4.375 4.375-4.375h120.31c2.418 0 4.375 1.957 4.375 4.375s-1.957 4.375-4.375 4.375z"/>
  <path d="m319.7 421.09h-120.31c-2.418 0-4.375-1.957-4.375-4.375s1.957-4.375 4.375-4.375h120.31c2.418 0 4.375 1.957 4.375 4.375s-1.957 4.375-4.375 4.375z"/>
  <path d="m426.01 519.53h-12.105c-0.11719 0-0.23438-0.003906-0.34766-0.015625-15.41-1.2305-29.613-7.4961-39.992-17.648-10.801-10.566-16.922-24.715-17.84-41.129l-193.29 0.003907c-2.418 0-4.375-1.957-4.375-4.375v-61.523c0-2.418 1.957-4.375 4.375-4.375 2.418 0 4.375 1.957 4.375 4.375v57.148h193.17c2.418 0 4.375 1.957 4.375 4.375 0 34.766 24.949 52.363 49.727 54.414h11.754c25.227-2.043 50.855-19.66 51.375-54.48v-37.184c-16.148 7.2383-34.34 9.8984-51.969 7.4922-20.703-2.8242-39.477-12.145-54.289-26.957-37.07-37.07-37.07-97.391 0-134.46 14.812-14.812 33.582-24.133 54.289-26.957 17.625-2.4062 35.816 0.25 51.969 7.4922l0.003907-140.45c0-16.859 6.4375-32.848 18.121-45.02 4.1875-4.3633 8.8867-8.0664 13.957-11.043h-314.94c-15.188 0-27.539 12.332-27.539 27.492v252.51c0 2.418-1.957 4.375-4.375 4.375-2.418 0-4.375-1.957-4.375-4.375v-252.51c0-19.984 16.281-36.242 36.289-36.242h346.11c2.4023 0 4.3555 1.9375 4.375 4.3359 0.019531 2.4023-1.8984 4.3711-4.3008 4.4141-0.17188 0.003906-0.34375 0.011719-0.51953 0.023438l-0.51172 0.023437c-29.527 1.0508-53.551 26.184-53.551 56.016v147.5c0 1.543-0.8125 2.9727-2.1406 3.7617-1.3281 0.78906-2.9727 0.81641-4.3281 0.078126-33.371-18.199-75.453-12.129-102.35 14.762-33.656 33.66-33.656 88.426 0 122.09 26.895 26.891 68.977 32.965 102.35 14.762 1.3555-0.74219 2.9961-0.70703 4.3281 0.078126 1.3281 0.78906 2.1406 2.2188 2.1406 3.7617v44.297c-0.60547 40.465-30.375 60.863-59.609 63.152-0.10547 0.011719-0.21875 0.015625-0.33594 0.015625z"/>
  <path d="m565.8 491.75c-8.4727 0-16.438-3.3008-22.43-9.2891l-66.469-66.469c-0.98438-0.98438-1.4414-2.3828-1.2305-3.7578 0.21094-1.3789 1.0664-2.5742 2.3008-3.2148l0.59766-0.30469c0.30859-0.16016 0.61719-0.31641 0.92578-0.48047 7.2656-3.9609 13.906-8.9297 19.742-14.762 6.2695-6.2695 11.508-13.414 15.574-21.23 0.64453-1.2383 1.8359-2.0938 3.2148-2.3047 1.3789-0.21484 2.7734 0.24609 3.7617 1.2305l66.445 66.445c12.367 12.367 12.367 32.488 0 44.855-5.9961 5.9805-13.961 9.2812-22.434 9.2812zm-78.613-77.852 62.371 62.371c4.3398 4.3359 10.105 6.7266 16.242 6.7266s11.902-2.3906 16.242-6.7266c8.9531-8.957 8.9531-23.527 0-32.484l-62.363-62.359c-3.9805 6.6133-8.7617 12.727-14.262 18.223-5.4727 5.4766-11.59 10.258-18.23 14.25z"/>
  <path d="m438.19 427.5c-25.398 0-49.273-9.8906-67.23-27.848-37.07-37.07-37.07-97.391 0-134.46 17.957-17.957 41.832-27.848 67.23-27.848s49.273 9.8906 67.23 27.848c17.957 17.957 27.848 41.836 27.848 67.23s-9.8906 49.273-27.848 67.23c-17.957 17.957-41.836 27.848-67.23 27.848zm0-181.41c-23.059 0-44.738 8.9805-61.043 25.285-33.656 33.66-33.656 88.426 0 122.09 16.305 16.305 37.984 25.285 61.043 25.285s44.738-8.9805 61.043-25.285c16.305-16.305 25.285-37.984 25.285-61.043s-8.9805-44.738-25.285-61.043c-16.305-16.305-37.984-25.285-61.043-25.285z"/>
  <path d="m438.19 396.56c-17.133 0-33.242-6.6719-45.355-18.789-25.008-25.008-25.008-65.703 0-90.711 12.113-12.117 28.223-18.789 45.355-18.789s33.242 6.6719 45.355 18.789c25.008 25.008 25.008 65.703 0 90.711-12.113 12.121-28.223 18.789-45.355 18.789zm0-119.53c-14.797 0-28.707 5.7617-39.168 16.223-21.598 21.598-21.598 56.738 0 78.336 10.461 10.461 24.375 16.223 39.168 16.223 14.797 0 28.707-5.7617 39.168-16.223 21.598-21.598 21.598-56.738 0-78.336-10.461-10.461-24.375-16.223-39.168-16.223z"/>
  <path d="m330.64 256.43h-127.32c-2.418 0-4.375-1.957-4.375-4.375v-50.93c0-1.8516 1.168-3.5039 2.9141-4.125l28.324-10.035 8.7969-3.4492c1.3906-0.54688 2.9648-0.34375 4.1719 0.53516l24.184 17.59 24.016-17.582c1.1836-0.86719 2.7227-1.082 4.0977-0.57422l36.707 13.535c1.7188 0.63281 2.8594 2.2734 2.8594 4.1055v50.93c0 2.418-1.957 4.375-4.375 4.375zm-122.95-8.75h118.57v-43.504l-31.641-11.668-24.699 18.078c-1.5352 1.125-3.6211 1.125-5.1562 0.007812l-24.828-18.059-6.6328 2.6016c-0.046875 0.015625-0.089844 0.035156-0.13672 0.050781l-25.48 9.0273z"/>
  <path d="m290.43 256.43h-46.895c-2.418 0-4.375-1.957-4.375-4.375v-21.805c0-2.418 1.957-4.375 4.375-4.375 2.418 0 4.375 1.957 4.375 4.375v17.43h38.145v-17.43c0-2.418 1.957-4.375 4.375-4.375 2.418 0 4.375 1.957 4.375 4.375v21.805c0 2.418-1.9609 4.375-4.375 4.375z"/>
  <path d="m267.87 174.5c-24.668 0-37.051-34.969-37.051-54.543 0-2.5859 0.27734-5.2305 0.82812-7.8555 0.49609-2.3633 2.8164-3.8867 5.1797-3.3867 2.3672 0.49609 3.8828 2.8125 3.3867 5.1797-0.42578 2.0352-0.64063 4.0781-0.64063 6.0625 0 16.145 10.746 45.793 28.301 45.793 17.555 0 28.301-29.648 28.301-45.793 0-0.20312-0.03125-0.54297-0.15625-1.0898-0.24609-0.5625-0.375-1.1836-0.36328-1.8359l0.003906-0.19141c0.042969-2.1641 1.6602-3.9727 3.8047-4.2539 2.1445-0.28125 4.1758 1.0508 4.7734 3.1328 0.46875 1.6328 0.6875 2.9805 0.6875 4.2422-0.003906 19.57-12.387 54.539-37.055 54.539z"/>
  <path d="m300.5 122.76h-48.68c-16.641 0-30.184-13.539-30.184-30.184v-3.9844c0-2.418 1.957-4.375 4.375-4.375h48.68c16.641 0 30.184 13.539 30.184 30.184v3.9883c0 2.4141-1.957 4.3711-4.375 4.3711zm-70.109-29.793c0.20703 11.641 9.7422 21.043 21.43 21.043h44.301c-0.20703-11.637-9.7422-21.043-21.43-21.043z"/>
  <path d="m440.02 103.91h-76.562c-2.418 0-4.375-1.957-4.375-4.375s1.957-4.375 4.375-4.375h76.562c2.418 0 4.375 1.957 4.375 4.375s-1.957 4.375-4.375 4.375z"/>
  <path d="m440.02 136.72h-76.562c-2.418 0-4.375-1.957-4.375-4.375s1.957-4.375 4.375-4.375h76.562c2.418 0 4.375 1.957 4.375 4.375s-1.957 4.375-4.375 4.375z"/>
  <path d="m440.02 169.53h-76.562c-2.418 0-4.375-1.957-4.375-4.375s1.957-4.375 4.375-4.375h76.562c2.418 0 4.375 1.957 4.375 4.375s-1.957 4.375-4.375 4.375z"/>
 </g>
</svg>
